<mxfile host="app.diagrams.net" modified="2022-02-16T14:23:31.274Z" agent="5.0 (Macintosh; Intel Mac OS X 10_15_7) AppleWebKit/537.36 (KHTML, like Gecko) Chrome/97.0.4692.71 Safari/537.36" etag="eipjE9Q3sF1LR3exuZqk" version="16.5.6" type="github">
  <diagram id="667e9k_SaELWsFKGwzjt" name="Page-1">
    <mxGraphModel dx="1720" dy="1116" grid="1" gridSize="10" guides="1" tooltips="1" connect="1" arrows="1" fold="1" page="1" pageScale="1" pageWidth="827" pageHeight="1169" math="0" shadow="0">
      <root>
        <mxCell id="0" />
        <mxCell id="1" parent="0" />
        <mxCell id="5dgpFQyMNd5qrhkOa5W_-2" value="" style="rounded=0;whiteSpace=wrap;html=1;" parent="1" vertex="1">
          <mxGeometry x="40" y="20" width="1560" height="110" as="geometry" />
        </mxCell>
        <mxCell id="5dgpFQyMNd5qrhkOa5W_-3" value="Logo" style="rounded=0;whiteSpace=wrap;html=1;" parent="1" vertex="1">
          <mxGeometry x="120" y="20" width="240" height="110" as="geometry" />
        </mxCell>
        <mxCell id="5dgpFQyMNd5qrhkOa5W_-4" value="Students" style="rounded=0;whiteSpace=wrap;html=1;" parent="1" vertex="1">
          <mxGeometry x="680" y="40" width="160" height="70" as="geometry" />
        </mxCell>
        <mxCell id="5dgpFQyMNd5qrhkOa5W_-5" value="Search" style="rounded=0;whiteSpace=wrap;html=1;" parent="1" vertex="1">
          <mxGeometry x="1400" y="40" width="160" height="70" as="geometry" />
        </mxCell>
        <mxCell id="5dgpFQyMNd5qrhkOa5W_-6" value="Preferences" style="rounded=0;whiteSpace=wrap;html=1;" parent="1" vertex="1">
          <mxGeometry x="1160" y="40" width="160" height="70" as="geometry" />
        </mxCell>
        <mxCell id="5dgpFQyMNd5qrhkOa5W_-7" value="Courses" style="rounded=0;whiteSpace=wrap;html=1;" parent="1" vertex="1">
          <mxGeometry x="920" y="40" width="160" height="70" as="geometry" />
        </mxCell>
        <mxCell id="5dgpFQyMNd5qrhkOa5W_-9" value="Footer" style="rounded=0;whiteSpace=wrap;html=1;" parent="1" vertex="1">
          <mxGeometry x="40" y="1030" width="1560" height="100" as="geometry" />
        </mxCell>
        <mxCell id="5dgpFQyMNd5qrhkOa5W_-30" value="Dashboard" style="rounded=0;whiteSpace=wrap;html=1;" parent="1" vertex="1">
          <mxGeometry x="440" y="40" width="160" height="70" as="geometry" />
        </mxCell>
        <mxCell id="5dgpFQyMNd5qrhkOa5W_-31" value="Student Progress info graphs" style="rounded=0;whiteSpace=wrap;html=1;" parent="1" vertex="1">
          <mxGeometry x="390" y="150" width="940" height="700" as="geometry" />
        </mxCell>
        <mxCell id="5dgpFQyMNd5qrhkOa5W_-32" value="" style="rounded=0;whiteSpace=wrap;html=1;" parent="1" vertex="1">
          <mxGeometry x="40" y="150" width="330" height="860" as="geometry" />
        </mxCell>
        <mxCell id="5dgpFQyMNd5qrhkOa5W_-33" value="Course Access Code" style="rounded=0;whiteSpace=wrap;html=1;" parent="1" vertex="1">
          <mxGeometry x="390" y="870" width="940" height="140" as="geometry" />
        </mxCell>
        <mxCell id="5dgpFQyMNd5qrhkOa5W_-34" value="" style="rounded=0;whiteSpace=wrap;html=1;" parent="1" vertex="1">
          <mxGeometry x="1350" y="150" width="250" height="860" as="geometry" />
        </mxCell>
        <mxCell id="5dgpFQyMNd5qrhkOa5W_-39" value="" style="rounded=0;whiteSpace=wrap;html=1;" parent="1" vertex="1">
          <mxGeometry x="350" y="150" width="20" height="860" as="geometry" />
        </mxCell>
        <mxCell id="5dgpFQyMNd5qrhkOa5W_-40" value="" style="rounded=0;whiteSpace=wrap;html=1;" parent="1" vertex="1">
          <mxGeometry x="350" y="150" width="20" height="60" as="geometry" />
        </mxCell>
        <mxCell id="5dgpFQyMNd5qrhkOa5W_-47" value="My Students" style="rounded=0;whiteSpace=wrap;html=1;" parent="1" vertex="1">
          <mxGeometry x="60" y="170" width="270" height="60" as="geometry" />
        </mxCell>
        <mxCell id="Y1prdV26iLyGLlld2Yeh-1" value="Student Course" style="rounded=0;whiteSpace=wrap;html=1;" vertex="1" parent="1">
          <mxGeometry x="1370" y="170" width="210" height="60" as="geometry" />
        </mxCell>
      </root>
    </mxGraphModel>
  </diagram>
</mxfile>
